# xmcd CD database file
#
# Track frame offsets:
#	182
#	37105
#	63327
#	88260
#	112462
#	136415
#	185860
#	211042
#	229385
#	260940
#	285135
#	313607
#
# Disc length: 4389 seconds
#
# Revision: 1
# Processed by: cddbd v1.5.2PL0 Copyright (c) Steve Scherf et al.
# Submitted via: CDex 1.51
#
DISCID=bf11230c
DTITLE=Red Mitchell - Vol. 266 - Red Mitchell
DYEAR=1957
DGENRE=Jazz
TTITLE0=Cheek To Cheek
TTITLE1=Things Ain't What They Used To Be
TTITLE2=Scrapple From The Apple
TTITLE3=I Thought Of You
TTITLE4=Endless
TTITLE5=Between The Devil And The Deep Blue Sea
TTITLE6=Sandu
TTITLE7=Easy Like
TTITLE8=Paul's Pal
TTITLE9=Rainy Night
TTITLE10=Out Of The Blue
TTITLE11=Happy Times
EXTD=YEAR: 1957
EXTT0=
EXTT1=
EXTT2=
EXTT3=
EXTT4=
EXTT5=
EXTT6=
EXTT7=
EXTT8=
EXTT9=
EXTT10=
EXTT11=
PLAYORDER=
